<svg xmlns="http://www.w3.org/2000/svg" viewBox="0 0 241.53 116.86"><defs><style>.cls-1{fill:#ea4335;}.cls-2{fill:#4285f4;}.cls-3{fill:#fbbc04;}.cls-4{fill:#0f9d58;}</style></defs><g id="Layer_2" data-name="Layer 2"><g id="Layer_1-2" data-name="Layer 1"><path class="cls-1" d="M57.5,58.66,96.73,36A19.3,19.3,0,0,0,77.43,2.59L9.65,41.72Z"/><path class="cls-2" d="M87.06,116.86a19.3,19.3,0,0,0,9.67-36L29,41.72A19.3,19.3,0,0,0,9.65,75.15l67.78,39.12A19.14,19.14,0,0,0,87.06,116.86Z"/><path class="cls-3" d="M154.48,116.86a19.17,19.17,0,0,0,9.63-2.59l67.77-39.12-47.24-17.3-39.83,23a19.3,19.3,0,0,0,9.67,36Z"/><path class="cls-4" d="M222.21,77.73a19.3,19.3,0,0,0,9.67-36L164.11,2.59A19.3,19.3,0,1,0,144.81,36l67.77,39.13A19.26,19.26,0,0,0,222.21,77.73Z"/></g></g></svg>